<?xml version="1.0" encoding="UTF-8" standalone="no"?>
<!-- Created with Inkscape (http://www.inkscape.org/) -->

<svg
   width="500"
   height="500"
   viewBox="0 0 132.29166 132.29167"
   version="1.1"
   id="svg1138"
   sodipodi:docname="ApertureNormal.svg"
   inkscape:version="1.1.1 (3bf5ae0d25, 2021-09-20)"
   xmlns:inkscape="http://www.inkscape.org/namespaces/inkscape"
   xmlns:sodipodi="http://sodipodi.sourceforge.net/DTD/sodipodi-0.dtd"
   xmlns="http://www.w3.org/2000/svg"
   xmlns:svg="http://www.w3.org/2000/svg">
  <sodipodi:namedview
     id="namedview1140"
     pagecolor="#505050"
     bordercolor="#eeeeee"
     borderopacity="1"
     inkscape:pageshadow="0"
     inkscape:pageopacity="0"
     inkscape:pagecheckerboard="0"
     inkscape:document-units="mm"
     showgrid="false"
     units="px"
     width="500px"
     inkscape:zoom="0.90583672"
     inkscape:cx="305.24265"
     inkscape:cy="300.82684"
     inkscape:window-width="1436"
     inkscape:window-height="970"
     inkscape:window-x="712"
     inkscape:window-y="732"
     inkscape:window-maximized="0"
     inkscape:current-layer="layer1" />
  <defs
     id="defs1135" />
  <g
     inkscape:label="Layer 1"
     inkscape:groupmode="layer"
     id="layer1">
    <path
       d="M 46.532434,76.684984 C 45.353251,74.768813 44.253907,72.809649 43.252831,70.807493 35.680264,55.760624 33.119224,38.275548 36.042617,21.588877 c 0.669431,-3.807781 1.59681,-7.523435 2.782135,-11.128543 -12.36914,6.031031 -22.429048,16.066372 -28.472361,28.429371 2.008296,4.735158 4.526343,9.279928 7.541859,13.579032 7.290055,10.391553 17.26398,18.774808 28.638184,24.216247 m 13.22282,10.502101 C 57.556569,86.665051 55.382451,86.057035 53.251322,85.344612 37.26479,80.056711 23.096167,69.51162 13.367905,55.643934 11.150796,52.48102 9.1793483,49.195275 7.4719895,45.811265 5.285587,52.13095 4.1002624,58.917397 4.1002624,65.980212 c 0,7.025968 1.1730407,13.775562 3.3348771,20.064541 4.7658665,1.928455 9.7651115,3.365585 14.9486045,4.268396 12.504255,2.192545 25.481413,1.074777 37.37151,-3.126064 m 16.772653,-1.916172 c -1.916171,1.179183 -3.875335,2.278526 -5.877491,3.279603 -10.987285,5.533564 -23.276585,8.389397 -35.602735,8.389397 -4.557052,0 -9.114103,-0.386919 -13.615881,-1.179182 -3.807781,-0.669433 -7.523435,-1.596811 -11.128543,-2.782135 6.031031,12.369144 16.066372,22.429044 28.429371,28.472364 4.735158,-2.00216 9.279926,-4.52635 13.579033,-7.54185 10.391552,-7.29007 18.774807,-17.263992 24.216246,-28.638197 M 46.458736,53.408399 C 51.746635,37.421869 62.291728,23.253244 76.159414,13.524983 79.322326,11.307873 82.601929,9.3425671 85.992082,7.6352084 79.672396,5.4426639 72.885951,4.2573392 65.823135,4.2573392 c -7.025967,0 -13.775563,1.1730425 -20.06454,3.3348771 -1.928455,4.7658667 -3.365585,9.7651117 -4.268398,14.9486047 -2.192543,12.504256 -1.074777,25.481413 3.126064,37.365369 0.522034,-2.192544 1.13005,-4.366663 1.842475,-6.497791 m 38.728799,25.143626 c -5.287901,15.986531 -15.832992,30.155155 -29.700678,39.883425 -3.162914,2.21709 -6.448659,4.18855 -9.832668,5.8959 6.319684,2.1864 13.106129,3.37172 20.168946,3.37172 7.025966,0 13.775562,-1.17303 20.064539,-3.33486 1.928457,-4.76588 3.365587,-9.76512 4.268398,-14.94861 2.192545,-12.504253 1.074777,-25.48141 -3.126064,-37.365366 -0.522034,2.192544 -1.13005,4.366663 -1.842473,6.497791 M 55.118362,46.689511 c 1.916173,-1.179183 3.875337,-2.278525 5.877491,-3.279603 15.04687,-7.572567 32.531947,-10.133606 49.218617,-7.210214 3.80778,0.669432 7.52344,1.59681 11.12854,2.782135 C 115.31198,26.612688 105.27664,16.552781 92.913641,10.509468 88.178485,12.517763 83.633715,15.035811 79.33461,18.051327 68.943058,25.341382 60.559801,35.315306 55.118362,46.689511 m 29.995473,8.585928 c 1.179184,1.916173 2.278527,3.875337 3.279605,5.877492 7.572567,15.046869 10.133605,32.531945 7.210214,49.218629 -0.669433,3.80777 -1.596811,7.52342 -2.782137,11.12853 12.369143,-6.03103 22.429053,-16.06637 28.472363,-28.429372 -2.0083,-4.735157 -4.52634,-9.279926 -7.54186,-13.579031 C 106.46197,69.100134 96.488041,60.716878 85.113835,55.275439 m 39.097295,-9.359767 c -4.76587,-1.928456 -9.76511,-3.365585 -14.9486,-4.268397 -12.50426,-2.192544 -25.481417,-1.074776 -37.371515,3.126063 2.198687,0.522035 4.372805,1.130052 6.503933,1.842475 15.986531,5.287898 30.155152,15.832991 39.883412,29.700678 2.21711,3.162912 4.18856,6.448657 5.89592,9.832668 2.1864,-6.319685 3.37173,-13.106131 3.37173,-20.168947 0,-7.025967 -1.17304,-13.775563 -3.33488,-20.06454"
       style="fill:#000000;fill-opacity:1;fill-rule:nonzero;stroke:none;stroke-width:0.614158"
       id="path835"
       inkscape:connector-curvature="0" />
  </g>
</svg>
