<?xml version="1.0" encoding="UTF-8" standalone="no"?>
<!-- Created with Inkscape (http://www.inkscape.org/) -->

<svg
   width="500"
   height="500"
   viewBox="0 0 132.29166 132.29167"
   version="1.1"
   id="svg1138"
   xmlns="http://www.w3.org/2000/svg"
   xmlns:svg="http://www.w3.org/2000/svg">
  <defs
     id="defs1135" />
  <g
     id="layer1">
    <path
       d="m 23.909434,61.040117 c -0.05438,-2.249273 -0.01813,-4.495507 0.124669,-6.729425 0.981501,-17.975493 7.265638,-27.210316 10.644044,-33.154259 1.587051,-3.222588 3.156842,-6.966276 4.146605,-10.696099 -12.36914,6.031031 -22.429048,16.066372 -28.472361,28.429371 2.008296,4.735158 4.526343,9.279928 7.541859,13.579032 7.290055,10.391553 -1.073993,-1.855765 6.015184,8.57138 m 8.951385,30.873861 C 31.176154,90.407777 29.554042,88.837674 28.019456,87.19624 16.787231,73.97746 16.88077,70.175925 11.475899,56.777092 9.639918,52.420926 9.3352832,48.921322 7.4719895,45.811265 5.285587,52.13095 4.1002624,58.917397 4.1002624,65.980212 c 0,7.025968 1.1730407,13.775562 3.3348771,20.064541 4.7658665,1.928455 9.7651115,3.365585 14.9486045,4.268396 12.504255,2.192545 -1.978601,-0.368336 10.477075,1.600829 m 28.600622,15.211782 c -2.232621,0.27854 -4.471261,0.4666 -6.70828,0.54742 -12.292701,0.47984 -19.748661,-3.97659 -29.190132,-7.38015 -1.945752,-0.701422 -3.786092,-1.850984 -5.602428,-2.667266 -2.811158,-1.263366 -6.036951,-3.469846 -9.657344,-4.647168 6.031031,12.369144 16.066372,22.429044 28.429371,28.472364 4.735158,-2.00216 9.279926,-4.52635 13.579033,-7.54185 10.391552,-7.29007 -0.517956,1.31088 9.14978,-6.78335 M 44.528877,28.189322 C 57.732592,16.343952 58.667999,16.261693 75.371902,10.421677 79.381634,9.0777886 82.601929,9.3425671 85.992082,7.6352084 79.672396,5.4426639 72.885951,4.2573392 65.823135,4.2573392 c -7.025967,0 -13.775563,1.1730425 -20.06454,3.3348771 -1.928455,4.7658667 -3.365585,9.7651117 -4.268398,14.9486047 -2.192543,12.504256 0.371864,-1.994831 -1.727689,10.433658 1.521185,-1.663058 3.108583,-3.268252 4.766369,-4.785157 M 87.492034,103.6731 c -11.208954,12.08806 -14.342419,12.06587 -31.127578,16.95515 -8.461128,2.7771 -7.406659,2.03504 -10.710267,3.7031 6.319684,2.1864 13.106129,3.37172 20.168946,3.37172 7.025966,0 13.775562,-1.17303 20.064539,-3.33486 1.928457,-4.76588 3.365587,-9.76512 4.268398,-14.94861 0.641309,-3.60728 0.804305,-4.06839 1.649586,-10.943486 -1.364392,1.793936 -2.799963,3.536236 -4.313624,5.196986 M 70.681645,24.560899 c 2.234737,-0.261039 4.474782,-0.431553 6.712364,-0.494839 18.17163,-0.228956 31.976121,9.1224 34.875681,10.488495 3.86771,1.743215 5.46822,3.241949 9.07332,4.427274 -6.03103,-12.369141 -16.06637,-22.429048 -28.429369,-28.472361 -4.735156,2.008295 -9.279926,4.526343 -13.579031,7.541859 -4.237551,2.896363 -2.366791,1.72171 -8.652965,6.509572 M 107.5379,71.230196 c 0.31262,2.228108 0.53486,4.463614 0.64984,6.699137 -0.40608,16.443478 -0.36386,14.971805 -9.656992,32.449497 -1.364919,3.79239 -4.572248,7.51508 -5.709231,11.12126 12.369143,-6.03103 22.429053,-16.06637 28.472363,-28.429372 -2.0083,-4.735157 -4.52634,-9.279926 -7.54186,-13.579031 -4.87443,-6.801566 -3.011,-4.330927 -6.21412,-8.261491 m 16.67323,-25.314524 c -4.76587,-1.928456 -9.76511,-3.365585 -14.9486,-4.268397 -3.13234,-0.402793 -3.71609,-0.554866 -10.123928,-1.090236 1.965878,1.114487 3.771798,2.965083 5.619698,4.243564 13.0641,14.181295 11.97945,15.76831 16.36793,28.550223 0.95515,2.70855 1.57501,8.810966 3.04805,12.798333 2.1864,-6.319685 3.37173,-13.106131 3.37173,-20.168947 0,-7.025967 -1.17304,-13.775563 -3.33488,-20.06454"
       style="fill:#000000;fill-opacity:1;fill-rule:nonzero;stroke:none;stroke-width:0.614158"
       id="path835" />
  </g>
</svg>
