<?xml version="1.0" encoding="iso-8859-1"?>
<!-- Generator: Adobe Illustrator 19.0.0, SVG Export Plug-In . SVG Version: 6.00 Build 0)  -->
<svg version="1.1" id="Layer_1" xmlns="http://www.w3.org/2000/svg" xmlns:xlink="http://www.w3.org/1999/xlink" x="0px" y="0px"
	 viewBox="0 0 512 512" style="enable-background:new 0 0 512 512;" xml:space="preserve">
<g>
	<g>
		<path fill="currentColor" d="M417.447,291.256l65.276,78.331L512,345.19l-76.702-92.043h-47.351c-0.742-11.186-2.083-22.177-3.998-32.88h59.247
			L459.48,89.995l-37.816-4.727l-12.111,96.889h-35.264c-5.691-17.007-13.004-32.806-21.814-46.903
			c-10.69-17.102-23.056-30.915-36.603-41.148l40.323-51.523l-30.011-23.488l-44.983,57.477c-8.195-2.306-16.618-3.5-25.199-3.5
			c-8.581,0-17.005,1.193-25.199,3.5l-44.981-57.476l-30.011,23.488l40.323,51.523c-13.547,10.232-25.913,24.045-36.603,41.148
			c-8.811,14.097-16.122,29.896-21.814,46.903h-35.264L90.338,85.269l-37.816,4.727l16.284,130.273h59.247
			c-1.916,10.702-3.256,21.693-3.999,32.88H76.702L0,345.189l29.277,24.397l65.276-78.329h29.301
			c0.898,16.17,3.045,31.955,6.368,47.077H101.64L39.82,477.428l34.825,15.478l51.762-116.463h15.244
			c5.004,12.889,10.978,24.978,17.877,36.018c25.062,40.099,59.324,62.184,96.473,62.184c37.149,0,71.41-22.085,96.472-62.184
			c6.899-11.038,12.873-23.128,17.877-36.018h15.244l51.762,116.463l34.825-15.478l-61.82-139.095h-28.582
			c3.323-15.121,5.47-30.906,6.368-47.077H417.447z M255.999,111.181c31.658,0,60.274,28.445,77.528,70.976H178.471
			C195.725,139.626,224.343,111.181,255.999,111.181z M275.054,433.051V265.101h-38.11v167.949
			c-42.476-15.657-75.472-82.208-75.472-159.193c0-18.67,1.947-36.724,5.493-53.591h178.068c3.547,16.866,5.493,34.92,5.493,53.591
			C350.527,350.844,317.53,417.394,275.054,433.051z"/>
	</g>
</g>
<g>
</g>
<g>
</g>
<g>
</g>
<g>
</g>
<g>
</g>
<g>
</g>
<g>
</g>
<g>
</g>
<g>
</g>
<g>
</g>
<g>
</g>
<g>
</g>
<g>
</g>
<g>
</g>
<g>
</g>
</svg>
