<?xml version="1.0" encoding="iso-8859-1"?>
<!-- Generator: Adobe Illustrator 19.0.0, SVG Export Plug-In . SVG Version: 6.00 Build 0)  -->
<svg version="1.1" id="Layer_1" xmlns="http://www.w3.org/2000/svg" xmlns:xlink="http://www.w3.org/1999/xlink" x="0px" y="0px"
	 viewBox="0 0 512 512" style="enable-background:new 0 0 512 512;" xml:space="preserve">
<g>
	<g>
		<path fill="currentColor" d="M438.392,155.637H272.336V115.11h38.746c9.024,0,16.34-7.316,16.34-16.34V16.34c0-9.024-7.316-16.34-16.34-16.34H200.918
			c-9.024,0-16.34,7.316-16.34,16.34v82.429c0,9.024,7.316,16.34,16.34,16.34h38.739v40.527H73.608
			c-9.024,0-16.34,7.316-16.34,16.34c0,6.31,0,245.744,0,255.346c0,9.024,7.316,16.34,16.34,16.34h130.154l-10.573,35.655h-29.984
			c-9.024,0-16.34,7.316-16.34,16.34c0,9.024,7.316,16.34,16.34,16.34c1.206,0,184.154,0,185.591,0c9.024,0,16.34-7.316,16.34-16.34
			c0-9.024-7.316-16.34-16.34-16.34h-29.984l-10.574-35.655h130.154c9.024,0,16.34-7.316,16.34-16.34c0-9.606,0-249.037,0-255.346
			C454.732,162.953,447.416,155.637,438.392,155.637z M256,45.146c6.853,0,12.409,5.556,12.409,12.409
			c0,6.853-5.556,12.409-12.409,12.409c-6.853,0-12.409-5.556-12.409-12.409C243.591,50.702,249.147,45.146,256,45.146z
			 M172.35,220.54c0-9.024,7.316-16.34,16.34-16.34H323.31c9.024,0,16.34,7.316,16.34,16.34v100.725
			c0,0.044-0.007,0.085-0.007,0.129c0.091-4.828-1.915-9.748-6.545-13.212l-67.309-50.362c-5.804-4.342-13.775-4.342-19.579,0
			L178.9,308.182c-5.074,3.796-6.301,8.873-6.551,11.493V220.54H172.35z M422.051,410.983H89.949v-24.816h332.103V410.983z"/>
	</g>
</g>
<g>
</g>
<g>
</g>
<g>
</g>
<g>
</g>
<g>
</g>
<g>
</g>
<g>
</g>
<g>
</g>
<g>
</g>
<g>
</g>
<g>
</g>
<g>
</g>
<g>
</g>
<g>
</g>
<g>
</g>
</svg>
